<mxfile host="app.diagrams.net" modified="2022-07-10T13:43:53.122Z" agent="5.0 (Macintosh; Intel Mac OS X 10_15_7) AppleWebKit/537.36 (KHTML, like Gecko) Chrome/102.0.5005.136 Safari/537.36" etag="VkM10Khokoh9hMTbbPpw" version="20.0.4" type="github">
  <diagram name="Page-1" id="c7558073-3199-34d8-9f00-42111426c3f3">
    <mxGraphModel dx="1151" dy="694" grid="1" gridSize="10" guides="1" tooltips="1" connect="1" arrows="1" fold="1" page="1" pageScale="1" pageWidth="826" pageHeight="1169" background="none" math="0" shadow="0">
      <root>
        <mxCell id="0" />
        <mxCell id="1" parent="0" />
        <mxCell id="Zyf0MMYLbGFv5g5D1PcZ-99" style="edgeStyle=orthogonalEdgeStyle;rounded=0;orthogonalLoop=1;jettySize=auto;html=1;entryX=0.5;entryY=0;entryDx=0;entryDy=0;fontColor=#000000;" edge="1" parent="1" source="Zyf0MMYLbGFv5g5D1PcZ-96" target="Zyf0MMYLbGFv5g5D1PcZ-98">
          <mxGeometry relative="1" as="geometry" />
        </mxCell>
        <mxCell id="Zyf0MMYLbGFv5g5D1PcZ-96" value="App Launch" style="rounded=1;whiteSpace=wrap;html=1;fillColor=#fad7ac;strokeColor=#361E01;fontColor=#000000;" vertex="1" parent="1">
          <mxGeometry x="350" y="30" width="120" height="40" as="geometry" />
        </mxCell>
        <mxCell id="Zyf0MMYLbGFv5g5D1PcZ-104" style="edgeStyle=orthogonalEdgeStyle;rounded=0;orthogonalLoop=1;jettySize=auto;html=1;fontColor=#FFFFFF;" edge="1" parent="1" source="Zyf0MMYLbGFv5g5D1PcZ-98">
          <mxGeometry relative="1" as="geometry">
            <mxPoint x="530" y="180" as="targetPoint" />
          </mxGeometry>
        </mxCell>
        <mxCell id="Zyf0MMYLbGFv5g5D1PcZ-114" style="edgeStyle=orthogonalEdgeStyle;rounded=0;orthogonalLoop=1;jettySize=auto;html=1;fontColor=#FFFFFF;" edge="1" parent="1" source="Zyf0MMYLbGFv5g5D1PcZ-98" target="Zyf0MMYLbGFv5g5D1PcZ-105">
          <mxGeometry relative="1" as="geometry" />
        </mxCell>
        <mxCell id="Zyf0MMYLbGFv5g5D1PcZ-98" value="Looged In?" style="rhombus;whiteSpace=wrap;html=1;strokeColor=#ae4132;fillColor=#fad9d5;fontColor=#000000;" vertex="1" parent="1">
          <mxGeometry x="370" y="140" width="80" height="80" as="geometry" />
        </mxCell>
        <mxCell id="Zyf0MMYLbGFv5g5D1PcZ-102" value="No" style="text;html=1;align=center;verticalAlign=middle;resizable=0;points=[];autosize=1;strokeColor=none;fillColor=none;fontColor=#FFFFFF;" vertex="1" parent="1">
          <mxGeometry x="453" y="150" width="40" height="30" as="geometry" />
        </mxCell>
        <mxCell id="Zyf0MMYLbGFv5g5D1PcZ-103" value="Yes" style="text;html=1;align=center;verticalAlign=middle;resizable=0;points=[];autosize=1;strokeColor=none;fillColor=none;fontColor=#FFFFFF;" vertex="1" parent="1">
          <mxGeometry x="413" y="240" width="40" height="30" as="geometry" />
        </mxCell>
        <mxCell id="Zyf0MMYLbGFv5g5D1PcZ-105" value="Today" style="rounded=1;whiteSpace=wrap;html=1;fillColor=#fad7ac;strokeColor=#361E01;fontColor=#000000;" vertex="1" parent="1">
          <mxGeometry x="350" y="420" width="120" height="40" as="geometry" />
        </mxCell>
        <mxCell id="Zyf0MMYLbGFv5g5D1PcZ-109" style="edgeStyle=orthogonalEdgeStyle;rounded=0;orthogonalLoop=1;jettySize=auto;html=1;fontColor=#FFFFFF;" edge="1" parent="1" source="Zyf0MMYLbGFv5g5D1PcZ-107" target="Zyf0MMYLbGFv5g5D1PcZ-108">
          <mxGeometry relative="1" as="geometry" />
        </mxCell>
        <mxCell id="Zyf0MMYLbGFv5g5D1PcZ-107" value="Sign In" style="rounded=1;whiteSpace=wrap;html=1;fillColor=#fad7ac;strokeColor=#361E01;fontColor=#000000;" vertex="1" parent="1">
          <mxGeometry x="530" y="160" width="120" height="40" as="geometry" />
        </mxCell>
        <mxCell id="Zyf0MMYLbGFv5g5D1PcZ-111" style="edgeStyle=orthogonalEdgeStyle;rounded=0;orthogonalLoop=1;jettySize=auto;html=1;fontColor=#FFFFFF;" edge="1" parent="1" source="Zyf0MMYLbGFv5g5D1PcZ-108" target="Zyf0MMYLbGFv5g5D1PcZ-110">
          <mxGeometry relative="1" as="geometry" />
        </mxCell>
        <mxCell id="Zyf0MMYLbGFv5g5D1PcZ-112" style="edgeStyle=orthogonalEdgeStyle;rounded=0;orthogonalLoop=1;jettySize=auto;html=1;fontColor=#FFFFFF;" edge="1" parent="1" source="Zyf0MMYLbGFv5g5D1PcZ-108">
          <mxGeometry relative="1" as="geometry">
            <mxPoint x="730" y="300" as="targetPoint" />
          </mxGeometry>
        </mxCell>
        <mxCell id="Zyf0MMYLbGFv5g5D1PcZ-108" value="New User?" style="rhombus;whiteSpace=wrap;html=1;strokeColor=#ae4132;fillColor=#fad9d5;fontColor=#000000;" vertex="1" parent="1">
          <mxGeometry x="690" y="140" width="80" height="80" as="geometry" />
        </mxCell>
        <mxCell id="Zyf0MMYLbGFv5g5D1PcZ-117" style="edgeStyle=orthogonalEdgeStyle;rounded=0;orthogonalLoop=1;jettySize=auto;html=1;entryX=1;entryY=0.5;entryDx=0;entryDy=0;fontColor=#FFFFFF;" edge="1" parent="1" source="Zyf0MMYLbGFv5g5D1PcZ-110" target="Zyf0MMYLbGFv5g5D1PcZ-105">
          <mxGeometry relative="1" as="geometry" />
        </mxCell>
        <mxCell id="Zyf0MMYLbGFv5g5D1PcZ-110" value="SignUp" style="rounded=1;whiteSpace=wrap;html=1;fillColor=#fad7ac;strokeColor=#361E01;fontColor=#000000;" vertex="1" parent="1">
          <mxGeometry x="850" y="360" width="120" height="40" as="geometry" />
        </mxCell>
        <mxCell id="Zyf0MMYLbGFv5g5D1PcZ-115" style="edgeStyle=orthogonalEdgeStyle;rounded=0;orthogonalLoop=1;jettySize=auto;html=1;entryX=1;entryY=0.5;entryDx=0;entryDy=0;fontColor=#FFFFFF;" edge="1" parent="1" source="Zyf0MMYLbGFv5g5D1PcZ-113" target="Zyf0MMYLbGFv5g5D1PcZ-105">
          <mxGeometry relative="1" as="geometry" />
        </mxCell>
        <mxCell id="Zyf0MMYLbGFv5g5D1PcZ-113" value="Login" style="rounded=1;whiteSpace=wrap;html=1;fillColor=#fad7ac;strokeColor=#361E01;fontColor=#000000;" vertex="1" parent="1">
          <mxGeometry x="670" y="300" width="120" height="40" as="geometry" />
        </mxCell>
      </root>
    </mxGraphModel>
  </diagram>
</mxfile>
